<svg width="50" height="50" viewBox="0 0 50 50" fill="none" xmlns="http://www.w3.org/2000/svg">
<path d="M25.0003 4.1665C13.5212 4.1665 4.16699 13.5207 4.16699 24.9998C4.16699 36.479 13.5212 45.8332 25.0003 45.8332C36.4795 45.8332 45.8337 36.479 45.8337 24.9998C45.8337 13.5207 36.4795 4.1665 25.0003 4.1665ZM30.8128 26.104L23.4587 33.4582C23.1462 33.7707 22.7503 33.9165 22.3545 33.9165C21.9587 33.9165 21.5628 33.7707 21.2503 33.4582C20.6462 32.854 20.6462 31.854 21.2503 31.2498L27.5003 24.9998L21.2503 18.7498C20.6462 18.1457 20.6462 17.1457 21.2503 16.5415C21.8545 15.9373 22.8545 15.9373 23.4587 16.5415L30.8128 23.8957C31.4378 24.4998 31.4378 25.4998 30.8128 26.104Z" fill="white"/>
</svg>
