<svg width="1512" height="1023" viewBox="0 0 1512 1023" fill="none" xmlns="http://www.w3.org/2000/svg">
<g opacity="0.02">
<g style="mix-blend-mode:multiply">
<path d="M1472.43 972.454C1493.94 968.031 1511.08 988.075 1510.08 1003.78C1509.21 1017.43 1485.58 1031.27 1456.67 1034.81C1452.35 1035.34 1447.91 1035.64 1443.4 1035.67C1447.58 998.341 1450.91 976.878 1472.43 972.454Z" fill="#1CB374"/>
</g>
<g style="mix-blend-mode:multiply">
<path d="M1326.53 972.454C1305.02 968.031 1287.88 988.075 1288.88 1003.78C1289.75 1017.43 1313.38 1031.27 1342.29 1034.81C1346.61 1035.34 1351.05 1035.64 1355.55 1035.67C1351.38 998.341 1348.05 976.878 1326.53 972.454Z" fill="#1CB374"/>
</g>
<path d="M1106.06 938.293C1104.47 887.287 1168.87 858.438 1212.12 868.536C1249.75 877.319 1276.49 937.836 1271.92 1005.15C1271.24 1015.22 1269.86 1025.45 1267.7 1035.67C1165.78 1007.56 1107.64 989.299 1106.06 938.293Z" fill="#1CB374"/>
<g style="mix-blend-mode:multiply">
<path d="M1038.81 972.454C1017.29 968.031 1000.16 988.075 1001.15 1003.78C1002.02 1017.43 1025.66 1031.27 1054.56 1034.81C1058.88 1035.34 1063.33 1035.64 1067.83 1035.67C1063.65 998.341 1060.32 976.878 1038.81 972.454Z" fill="#1CB374"/>
</g>
<path d="M818.331 938.293C816.748 887.287 881.147 858.438 924.398 868.536C962.02 877.319 988.762 937.836 984.198 1005.15C983.515 1015.22 982.131 1025.45 979.978 1035.67C878.053 1007.56 819.915 989.299 818.331 938.293Z" fill="#1CB374"/>
<g style="mix-blend-mode:multiply">
<path d="M751.079 972.454C729.562 968.031 712.429 988.075 713.426 1003.78C714.292 1017.43 737.931 1031.27 766.833 1034.81C771.158 1035.34 775.6 1035.64 780.102 1035.67C775.925 998.341 772.596 976.878 751.079 972.454Z" fill="#1CB374"/>
</g>
<g style="mix-blend-mode:multiply">
<path d="M721.274 972.454C742.79 968.031 759.923 988.075 758.927 1003.78C758.061 1017.43 734.422 1031.27 705.52 1034.81C701.195 1035.34 696.753 1035.64 692.251 1035.67C696.428 998.341 699.757 976.878 721.274 972.454Z" fill="#1CB374"/>
</g>
<path d="M442.755 938.293C441.171 887.287 505.571 858.438 548.821 868.536C586.443 877.319 613.185 937.836 608.621 1005.15C607.938 1015.22 606.554 1025.45 604.401 1035.67C502.476 1007.56 444.339 989.299 442.755 938.293Z" fill="#1CB374"/>
<path d="M242.878 938.293C241.294 887.287 305.694 858.438 348.945 868.536C386.567 877.319 413.309 937.836 408.745 1005.15C408.062 1015.22 406.678 1025.45 404.525 1035.67C302.6 1007.56 244.462 989.299 242.878 938.293Z" fill="#1CB374"/>
<path d="M43.0016 938.293C41.4178 887.287 105.817 858.438 149.068 868.536C186.69 877.319 213.432 937.836 208.868 1005.15C208.185 1015.22 206.801 1025.45 204.648 1035.67C102.723 1007.56 44.5854 989.299 43.0016 938.293Z" fill="#1CB374"/>
<g style="mix-blend-mode:multiply">
<path d="M1472.43 904.019C1493.94 899.596 1511.08 919.64 1510.08 935.342C1509.21 949 1485.58 962.834 1456.67 966.374C1452.35 966.904 1447.91 967.203 1443.4 967.237C1447.58 929.906 1450.91 908.443 1472.43 904.019Z" fill="#1CB374"/>
</g>
<g style="mix-blend-mode:multiply">
<path d="M1326.53 904.019C1305.02 899.596 1287.88 919.64 1288.88 935.342C1289.75 949 1313.38 962.833 1342.29 966.374C1346.61 966.904 1351.05 967.203 1355.55 967.237C1351.38 929.906 1348.05 908.443 1326.53 904.019Z" fill="#1CB374"/>
</g>
<path d="M1106.06 869.858C1104.47 818.852 1168.87 790.003 1212.12 800.101C1249.75 808.884 1276.49 869.401 1271.92 936.715C1271.24 946.787 1269.86 957.011 1267.7 967.237C1165.78 939.129 1107.64 920.864 1106.06 869.858Z" fill="#1CB374"/>
<path d="M906.182 869.858C904.598 818.852 968.997 790.003 1012.25 800.101C1049.87 808.884 1076.61 869.401 1072.05 936.715C1071.36 946.787 1069.98 957.011 1067.83 967.237C965.903 939.129 907.765 920.864 906.182 869.858Z" fill="#1CB374"/>
<path d="M706.305 869.858C704.721 818.852 769.121 790.003 812.372 800.101C849.993 808.884 876.735 869.401 872.171 936.715C871.488 946.787 870.105 957.011 867.952 967.237C766.026 939.129 707.889 920.864 706.305 869.858Z" fill="#1CB374"/>
<g style="mix-blend-mode:multiply">
<path d="M697.097 904.019C718.614 899.596 735.747 919.64 734.751 935.342C733.884 949 710.245 962.834 681.343 966.374C677.019 966.904 672.577 967.203 668.075 967.237C672.252 929.906 675.58 908.443 697.097 904.019Z" fill="#1CB374"/>
</g>
<g style="mix-blend-mode:multiply">
<path d="M609.247 904.019C630.764 899.596 647.897 919.64 646.901 935.342C646.034 949 622.395 962.834 593.493 966.374C589.169 966.904 584.726 967.203 580.225 967.237C584.401 929.906 587.73 908.443 609.247 904.019Z" fill="#1CB374"/>
</g>
<path d="M330.728 869.858C329.144 818.852 393.544 790.003 436.795 800.101C474.417 808.884 501.159 869.401 496.595 936.715C495.912 946.787 494.528 957.011 492.375 967.237C390.45 939.129 332.312 920.864 330.728 869.858Z" fill="#1CB374"/>
<g style="mix-blend-mode:multiply">
<path d="M263.476 904.019C241.959 899.596 224.826 919.64 225.822 935.342C226.689 949 250.328 962.833 279.23 966.374C283.554 966.904 287.997 967.203 292.498 967.237C288.322 929.906 284.993 908.443 263.476 904.019Z" fill="#1CB374"/>
</g>
<path d="M43.0016 869.858C41.4178 818.852 105.817 790.003 149.068 800.101C186.69 808.884 213.432 869.401 208.868 936.715C208.185 946.787 206.801 957.011 204.648 967.237C102.723 939.129 44.5854 920.864 43.0016 869.858Z" fill="#1CB374"/>
<g style="mix-blend-mode:multiply">
<path d="M1472.43 835.584C1493.94 831.16 1511.08 851.205 1510.08 866.907C1509.21 880.565 1485.58 894.398 1456.67 897.939C1452.35 898.469 1447.91 898.768 1443.4 898.802C1447.58 861.471 1450.91 840.008 1472.43 835.584Z" fill="#1CB374"/>
</g>
<path d="M1193.91 801.423C1192.32 750.417 1256.72 721.568 1299.97 731.666C1337.6 740.449 1364.34 800.966 1359.77 868.28C1359.09 878.352 1357.71 888.576 1355.55 898.802C1253.63 870.694 1195.49 852.429 1193.91 801.423Z" fill="#1CB374"/>
<path d="M994.032 801.423C992.448 750.417 1056.85 721.568 1100.1 731.666C1137.72 740.449 1164.46 800.966 1159.9 868.28C1159.22 878.352 1157.83 888.576 1155.68 898.802C1053.75 870.694 995.615 852.429 994.032 801.423Z" fill="#1CB374"/>
<path d="M794.155 801.423C792.571 750.417 856.971 721.568 900.222 731.666C937.844 740.449 964.586 800.966 960.022 868.28C959.339 878.352 957.955 888.576 955.802 898.802C853.877 870.694 795.739 852.429 794.155 801.423Z" fill="#1CB374"/>
<path d="M594.279 801.423C592.695 750.417 657.094 721.568 700.345 731.666C737.967 740.449 764.709 800.966 760.145 868.28C759.462 878.352 758.078 888.576 755.925 898.802C654 870.694 595.862 852.429 594.279 801.423Z" fill="#1CB374"/>
<g style="mix-blend-mode:multiply">
<path d="M527.026 835.584C505.51 831.16 488.377 851.205 489.373 866.907C490.239 880.565 513.878 894.398 542.78 897.939C547.105 898.469 551.547 898.768 556.049 898.802C551.872 861.471 548.543 840.008 527.026 835.584Z" fill="#1CB374"/>
</g>
<g style="mix-blend-mode:multiply">
<path d="M497.221 835.584C518.738 831.16 535.871 851.205 534.874 866.907C534.008 880.565 510.369 894.398 481.467 897.939C477.142 898.469 472.7 898.768 468.198 898.802C472.375 861.471 475.704 840.008 497.221 835.584Z" fill="#1CB374"/>
</g>
<g style="mix-blend-mode:multiply">
<path d="M409.371 835.584C430.887 831.16 448.02 851.205 447.024 866.907C446.158 880.565 422.519 894.398 393.617 897.939C389.292 898.469 384.85 898.768 380.348 898.802C384.525 861.471 387.854 840.008 409.371 835.584Z" fill="#1CB374"/>
</g>
<g style="mix-blend-mode:multiply">
<path d="M321.52 835.584C343.037 831.16 360.17 851.205 359.174 866.907C358.307 880.565 334.669 894.398 305.767 897.939C301.442 898.469 297 898.768 292.498 898.802C296.675 861.471 300.004 840.008 321.52 835.584Z" fill="#1CB374"/>
</g>
<g style="mix-blend-mode:multiply">
<path d="M175.626 835.584C154.109 831.16 136.976 851.205 137.972 866.907C138.839 880.565 162.478 894.398 191.38 897.939C195.704 898.469 200.147 898.768 204.648 898.802C200.472 861.471 197.143 840.008 175.626 835.584Z" fill="#1CB374"/>
</g>
<path d="M1281.76 640.742C1280.17 589.736 1344.57 560.887 1387.83 570.985C1425.45 579.768 1452.19 640.285 1447.62 707.599C1446.94 717.671 1445.56 727.895 1443.4 738.121C1341.48 710.013 1283.34 691.748 1281.76 640.742Z" fill="#1CB374"/>
<g style="mix-blend-mode:multiply">
<path d="M1214.51 674.903C1192.99 670.48 1175.86 690.524 1176.85 706.226C1177.72 719.884 1201.36 733.718 1230.26 737.258C1234.58 737.788 1239.03 738.087 1243.53 738.121C1239.35 700.79 1236.02 679.327 1214.51 674.903Z" fill="#1CB374"/>
</g>
<g style="mix-blend-mode:multiply">
<path d="M1126.66 674.903C1105.14 670.479 1088.01 690.524 1089 706.225C1089.87 719.884 1113.51 733.717 1142.41 737.258C1146.73 737.788 1151.18 738.087 1155.68 738.121C1151.5 700.79 1148.17 679.327 1126.66 674.903Z" fill="#1CB374"/>
</g>
<g style="mix-blend-mode:multiply">
<path d="M1096.85 674.903C1118.37 670.479 1135.5 690.524 1134.5 706.225C1133.64 719.884 1110 733.717 1081.1 737.258C1076.77 737.788 1072.33 738.087 1067.83 738.121C1072 700.79 1075.33 679.327 1096.85 674.903Z" fill="#1CB374"/>
</g>
<g style="mix-blend-mode:multiply">
<path d="M1009 674.903C1030.52 670.479 1047.65 690.524 1046.65 706.225C1045.79 719.884 1022.15 733.717 993.246 737.258C988.922 737.788 984.48 738.087 979.978 738.121C984.155 700.79 987.484 679.327 1009 674.903Z" fill="#1CB374"/>
</g>
<g style="mix-blend-mode:multiply">
<path d="M921.15 674.903C942.667 670.479 959.8 690.524 958.804 706.225C957.937 719.884 934.298 733.717 905.396 737.258C901.072 737.788 896.629 738.087 892.128 738.121C896.305 700.79 899.633 679.327 921.15 674.903Z" fill="#1CB374"/>
</g>
<path d="M642.631 640.742C641.047 589.736 705.447 560.887 748.698 570.984C786.32 579.768 813.062 640.284 808.498 707.599C807.815 717.671 806.431 727.895 804.278 738.121C702.353 710.012 644.215 691.748 642.631 640.742Z" fill="#1CB374"/>
<g style="mix-blend-mode:multiply">
<path d="M575.379 674.903C553.862 670.479 536.729 690.524 537.726 706.225C538.592 719.884 562.231 733.717 591.133 737.258C595.457 737.788 599.9 738.087 604.401 738.121C600.225 700.79 596.896 679.327 575.379 674.903Z" fill="#1CB374"/>
</g>
<g style="mix-blend-mode:multiply">
<path d="M545.574 674.903C567.09 670.479 584.223 690.524 583.227 706.225C582.361 719.884 558.722 733.717 529.82 737.258C525.495 737.788 521.053 738.087 516.551 738.121C520.728 700.79 524.057 679.327 545.574 674.903Z" fill="#1CB374"/>
</g>
<g style="mix-blend-mode:multiply">
<path d="M399.679 674.903C378.162 670.479 361.029 690.524 362.025 706.225C362.892 719.884 386.531 733.717 415.433 737.258C419.757 737.788 424.2 738.087 428.701 738.121C424.525 700.79 421.196 679.327 399.679 674.903Z" fill="#1CB374"/>
</g>
<g style="mix-blend-mode:multiply">
<path d="M1414.38 606.468C1392.87 602.044 1375.73 622.088 1376.73 637.79C1377.6 651.449 1401.23 665.282 1430.14 668.823C1434.46 669.352 1438.9 669.652 1443.4 669.686C1439.23 632.355 1435.9 610.892 1414.38 606.468Z" fill="#1CB374"/>
</g>
<g style="mix-blend-mode:multiply">
<path d="M1326.53 606.468C1305.02 602.044 1287.88 622.088 1288.88 637.79C1289.75 651.449 1313.38 665.282 1342.29 668.823C1346.61 669.352 1351.05 669.652 1355.55 669.686C1351.38 632.355 1348.05 610.892 1326.53 606.468Z" fill="#1CB374"/>
</g>
<g style="mix-blend-mode:multiply">
<path d="M1238.68 606.468C1217.17 602.044 1200.03 622.088 1201.03 637.79C1201.9 651.449 1225.53 665.282 1254.44 668.823C1258.76 669.352 1263.2 669.652 1267.7 669.686C1263.53 632.355 1260.2 610.892 1238.68 606.468Z" fill="#1CB374"/>
</g>
<path d="M1018.21 572.307C1016.62 521.301 1081.02 492.451 1124.27 502.549C1161.9 511.333 1188.64 571.849 1184.07 639.164C1183.39 649.236 1182.01 659.46 1179.85 669.686C1077.93 641.577 1019.79 623.313 1018.21 572.307Z" fill="#1CB374"/>
<g style="mix-blend-mode:multiply">
<path d="M1009 606.468C1030.52 602.044 1047.65 622.088 1046.65 637.79C1045.79 651.449 1022.15 665.282 993.246 668.823C988.922 669.352 984.48 669.652 979.978 669.686C984.155 632.355 987.484 610.892 1009 606.468Z" fill="#1CB374"/>
</g>
<g style="mix-blend-mode:multiply">
<path d="M863.106 606.468C841.589 602.044 824.456 622.088 825.452 637.79C826.319 651.449 849.958 665.282 878.86 668.823C883.184 669.352 887.626 669.652 892.128 669.686C887.951 632.355 884.622 610.892 863.106 606.468Z" fill="#1CB374"/>
</g>
<g style="mix-blend-mode:multiply">
<path d="M833.3 606.468C854.817 602.044 871.95 622.088 870.954 637.79C870.087 651.449 846.448 665.282 817.546 668.823C813.222 669.352 808.779 669.652 804.278 669.686C808.454 632.355 811.783 610.892 833.3 606.468Z" fill="#1CB374"/>
</g>
<g style="mix-blend-mode:multiply">
<path d="M687.405 606.468C665.889 602.044 648.756 622.088 649.752 637.79C650.618 651.449 674.257 665.282 703.159 668.823C707.484 669.352 711.926 669.652 716.428 669.686C712.251 632.355 708.922 610.892 687.405 606.468Z" fill="#1CB374"/>
</g>
<g style="mix-blend-mode:multiply">
<path d="M657.6 606.468C679.117 602.044 696.25 622.088 695.254 637.79C694.387 651.449 670.748 665.282 641.846 668.823C637.522 669.352 633.079 669.652 628.578 669.686C632.754 632.355 636.083 610.892 657.6 606.468Z" fill="#1CB374"/>
</g>
<g style="mix-blend-mode:multiply">
<path d="M511.705 606.468C490.188 602.044 473.056 622.088 474.052 637.79C474.918 651.449 498.557 665.282 527.459 668.823C531.784 669.352 536.226 669.652 540.728 669.686C536.551 632.355 533.222 610.892 511.705 606.468Z" fill="#1CB374"/>
</g>
<g style="mix-blend-mode:multiply">
<path d="M1414.38 445.787C1392.87 441.363 1375.73 461.408 1376.73 477.109C1377.6 490.768 1401.23 504.601 1430.14 508.142C1434.46 508.672 1438.9 508.971 1443.4 509.005C1439.23 471.674 1435.9 450.211 1414.38 445.787Z" fill="#1CB374"/>
</g>
<g style="mix-blend-mode:multiply">
<path d="M1384.58 445.787C1406.09 441.363 1423.23 461.408 1422.23 477.109C1421.36 490.768 1397.73 504.601 1368.82 508.142C1364.5 508.672 1360.06 508.971 1355.55 509.005C1359.73 471.674 1363.06 450.211 1384.58 445.787Z" fill="#1CB374"/>
</g>
<path d="M1106.06 411.626C1104.47 360.62 1168.87 331.771 1212.12 341.868C1249.75 350.652 1276.49 411.168 1271.92 478.483C1271.24 488.555 1269.86 498.779 1267.7 509.005C1165.78 480.896 1107.64 462.632 1106.06 411.626Z" fill="#1CB374"/>
<path d="M906.182 411.626C904.598 360.62 968.997 331.771 1012.25 341.868C1049.87 350.652 1076.61 411.168 1072.05 478.483C1071.37 488.555 1069.98 498.779 1067.83 509.005C965.903 480.896 907.765 462.632 906.182 411.626Z" fill="#1CB374"/>
<g style="mix-blend-mode:multiply">
<path d="M896.974 445.787C918.491 441.363 935.624 461.408 934.627 477.109C933.761 490.768 910.122 504.601 881.22 508.142C876.895 508.672 872.453 508.971 867.952 509.005C872.128 471.674 875.457 450.211 896.974 445.787Z" fill="#1CB374"/>
</g>
<g style="mix-blend-mode:multiply">
<path d="M751.079 445.787C729.562 441.363 712.43 461.408 713.426 477.109C714.292 490.768 737.931 504.601 766.833 508.142C771.158 508.672 775.6 508.971 780.102 509.005C775.925 471.674 772.596 450.211 751.079 445.787Z" fill="#1CB374"/>
</g>
<path d="M530.605 411.626C529.021 360.62 593.421 331.771 636.672 341.868C674.293 350.652 701.035 411.168 696.471 478.483C695.788 488.555 694.404 498.779 692.251 509.005C590.326 480.896 532.189 462.632 530.605 411.626Z" fill="#1CB374"/>
<path d="M330.728 411.626C329.144 360.62 393.544 331.771 436.795 341.868C474.417 350.652 501.159 411.168 496.595 478.483C495.912 488.555 494.528 498.779 492.375 509.005C390.45 480.896 332.312 462.632 330.728 411.626Z" fill="#1CB374"/>
<g style="mix-blend-mode:multiply">
<path d="M263.476 445.787C241.959 441.363 224.826 461.408 225.822 477.109C226.689 490.768 250.328 504.601 279.23 508.142C283.554 508.672 287.997 508.971 292.498 509.005C288.322 471.674 284.993 450.211 263.476 445.787Z" fill="#1CB374"/>
</g>
<path d="M43.0016 411.626C41.4178 360.62 105.818 331.771 149.068 341.868C186.69 350.652 213.432 411.168 208.868 478.483C208.185 488.555 206.801 498.779 204.648 509.005C102.723 480.896 44.5855 462.632 43.0016 411.626Z" fill="#1CB374"/>
<g style="mix-blend-mode:multiply">
<path d="M1414.38 377.352C1392.87 372.928 1375.73 392.972 1376.73 408.674C1377.6 422.332 1401.23 436.166 1430.14 439.706C1434.46 440.236 1438.9 440.536 1443.4 440.569C1439.23 403.238 1435.9 381.776 1414.38 377.352Z" fill="#1CB374"/>
</g>
<path d="M1193.91 343.191C1192.32 292.185 1256.72 263.335 1299.97 273.433C1337.6 282.217 1364.34 342.733 1359.77 410.047C1359.09 420.119 1357.71 430.344 1355.55 440.569C1253.63 412.461 1195.49 394.197 1193.91 343.191Z" fill="#1CB374"/>
<path d="M994.032 343.191C992.448 292.185 1056.85 263.335 1100.1 273.433C1137.72 282.217 1164.46 342.733 1159.9 410.047C1159.22 420.119 1157.83 430.344 1155.68 440.569C1053.75 412.461 995.616 394.197 994.032 343.191Z" fill="#1CB374"/>
<path d="M794.155 343.191C792.571 292.185 856.971 263.335 900.222 273.433C937.844 282.217 964.586 342.733 960.022 410.047C959.339 420.119 957.955 430.344 955.802 440.569C853.877 412.461 795.739 394.197 794.155 343.191Z" fill="#1CB374"/>
<g style="mix-blend-mode:multiply">
<path d="M726.903 377.352C705.386 372.928 688.253 392.972 689.249 408.674C690.116 422.332 713.755 436.166 742.657 439.706C746.981 440.236 751.424 440.536 755.925 440.569C751.749 403.238 748.42 381.776 726.903 377.352Z" fill="#1CB374"/>
</g>
<g style="mix-blend-mode:multiply">
<path d="M639.053 377.352C617.536 372.928 600.403 392.972 601.399 408.674C602.266 422.332 625.905 436.166 654.807 439.706C659.131 440.236 663.574 440.536 668.075 440.569C663.898 403.238 660.57 381.776 639.053 377.352Z" fill="#1CB374"/>
</g>
<g style="mix-blend-mode:multiply">
<path d="M609.247 377.352C630.764 372.928 647.897 392.972 646.901 408.674C646.034 422.332 622.395 436.166 593.493 439.706C589.169 440.236 584.726 440.536 580.225 440.569C584.402 403.238 587.73 381.776 609.247 377.352Z" fill="#1CB374"/>
</g>
<g style="mix-blend-mode:multiply">
<path d="M463.353 377.352C441.836 372.928 424.703 392.972 425.699 408.674C426.566 422.332 450.204 436.166 479.107 439.706C483.431 440.236 487.873 440.536 492.375 440.569C488.198 403.238 484.869 381.776 463.353 377.352Z" fill="#1CB374"/>
</g>
<path d="M242.878 343.191C241.295 292.185 305.694 263.335 348.945 273.433C386.567 282.217 413.309 342.733 408.745 410.047C408.062 420.119 406.678 430.344 404.525 440.569C302.6 412.461 244.462 394.197 242.878 343.191Z" fill="#1CB374"/>
<g style="mix-blend-mode:multiply">
<path d="M175.626 377.352C154.109 372.928 136.976 392.972 137.972 408.674C138.839 422.332 162.478 436.166 191.38 439.706C195.704 440.236 200.147 440.536 204.648 440.569C200.472 403.238 197.143 381.776 175.626 377.352Z" fill="#1CB374"/>
</g>
<path d="M1281.76 274.756C1280.17 223.749 1344.57 194.9 1387.83 204.998C1425.45 213.782 1452.19 274.298 1447.62 341.612C1446.94 351.684 1445.56 361.908 1443.4 372.134C1341.48 344.026 1283.34 325.762 1281.76 274.756Z" fill="#1CB374"/>
<path d="M1081.88 274.756C1080.3 223.749 1144.7 194.9 1187.95 204.998C1225.57 213.782 1252.31 274.298 1247.75 341.612C1247.07 351.684 1245.68 361.908 1243.53 372.134C1141.6 344.026 1083.47 325.762 1081.88 274.756Z" fill="#1CB374"/>
<path d="M882.005 274.756C880.421 223.749 944.821 194.9 988.072 204.998C1025.69 213.782 1052.44 274.298 1047.87 341.612C1047.19 351.684 1045.8 361.908 1043.65 372.134C941.727 344.026 883.589 325.762 882.005 274.756Z" fill="#1CB374"/>
<g style="mix-blend-mode:multiply">
<path d="M814.753 308.917C793.236 304.493 776.103 324.537 777.099 340.239C777.966 353.897 801.605 367.731 830.507 371.271C834.831 371.801 839.274 372.1 843.775 372.134C839.599 334.803 836.27 313.341 814.753 308.917Z" fill="#1CB374"/>
</g>
<path d="M594.279 274.756C592.695 223.749 657.095 194.9 700.345 204.998C737.967 213.782 764.709 274.298 760.145 341.612C759.462 351.684 758.078 361.908 755.925 372.134C654 344.026 595.862 325.762 594.279 274.756Z" fill="#1CB374"/>
<g style="mix-blend-mode:multiply">
<path d="M527.026 308.917C505.51 304.493 488.377 324.537 489.373 340.239C490.239 353.897 513.878 367.731 542.78 371.271C547.105 371.801 551.547 372.1 556.049 372.134C551.872 334.803 548.543 313.341 527.026 308.917Z" fill="#1CB374"/>
</g>
<g style="mix-blend-mode:multiply">
<path d="M497.221 308.917C518.738 304.493 535.871 324.537 534.874 340.239C534.008 353.897 510.369 367.731 481.467 371.271C477.142 371.801 472.7 372.1 468.199 372.134C472.375 334.803 475.704 313.341 497.221 308.917Z" fill="#1CB374"/>
</g>
<path d="M218.702 274.756C217.118 223.749 281.518 194.9 324.769 204.998C362.39 213.782 389.132 274.298 384.568 341.612C383.885 351.684 382.502 361.908 380.348 372.134C278.423 344.026 220.286 325.762 218.702 274.756Z" fill="#1CB374"/>
<path d="M18.8255 274.756C17.2417 223.749 81.6414 194.9 124.892 204.998C162.514 213.782 189.256 274.298 184.692 341.612C184.009 351.684 182.625 361.908 180.472 372.134C78.5469 344.026 20.4093 325.762 18.8255 274.756Z" fill="#1CB374"/>
<g style="mix-blend-mode:multiply">
<path d="M1472.43 148.236C1493.94 143.812 1511.08 163.856 1510.08 179.558C1509.21 193.216 1485.58 207.05 1456.67 210.591C1452.35 211.12 1447.91 211.42 1443.4 211.453C1447.58 174.123 1450.91 152.66 1472.43 148.236Z" fill="#1CB374"/>
</g>
<g style="mix-blend-mode:multiply">
<path d="M1384.58 148.236C1406.09 143.812 1423.23 163.856 1422.23 179.558C1421.36 193.216 1397.73 207.05 1368.82 210.591C1364.5 211.12 1360.06 211.42 1355.55 211.453C1359.73 174.123 1363.06 152.66 1384.58 148.236Z" fill="#1CB374"/>
</g>
<g style="mix-blend-mode:multiply">
<path d="M1238.68 148.236C1217.17 143.812 1200.03 163.856 1201.03 179.558C1201.9 193.216 1225.53 207.05 1254.44 210.591C1258.76 211.12 1263.2 211.42 1267.7 211.453C1263.53 174.123 1260.2 152.66 1238.68 148.236Z" fill="#1CB374"/>
</g>
<g style="mix-blend-mode:multiply">
<path d="M1208.88 148.236C1230.39 143.812 1247.53 163.856 1246.53 179.558C1245.66 193.216 1222.03 207.05 1193.12 210.591C1188.8 211.12 1184.36 211.42 1179.85 211.453C1184.03 174.123 1187.36 152.66 1208.88 148.236Z" fill="#1CB374"/>
</g>
<path d="M930.358 114.075C928.774 63.0686 993.174 34.2193 1036.42 44.3172C1074.05 53.1008 1100.79 113.617 1096.22 180.931C1095.54 191.003 1094.16 201.228 1092 211.453C990.079 183.345 931.942 165.081 930.358 114.075Z" fill="#1CB374"/>
<g style="mix-blend-mode:multiply">
<path d="M921.15 148.236C942.667 143.812 959.8 163.856 958.804 179.558C957.937 193.216 934.298 207.05 905.396 210.591C901.072 211.12 896.63 211.42 892.128 211.453C896.305 174.123 899.633 152.66 921.15 148.236Z" fill="#1CB374"/>
</g>
<path d="M642.631 114.075C641.047 63.0686 705.447 34.2193 748.698 44.3172C786.32 53.1008 813.062 113.617 808.498 180.931C807.815 191.003 806.431 201.228 804.278 211.453C702.353 183.345 644.215 165.081 642.631 114.075Z" fill="#1CB374"/>
<g style="mix-blend-mode:multiply">
<path d="M575.379 148.236C553.862 143.812 536.729 163.856 537.726 179.558C538.592 193.216 562.231 207.05 591.133 210.591C595.458 211.12 599.9 211.42 604.401 211.453C600.225 174.123 596.896 152.66 575.379 148.236Z" fill="#1CB374"/>
</g>
<g style="mix-blend-mode:multiply">
<path d="M545.574 148.236C567.09 143.812 584.223 163.856 583.227 179.558C582.361 193.216 558.722 207.05 529.82 210.591C525.495 211.12 521.053 211.42 516.551 211.453C520.728 174.123 524.057 152.66 545.574 148.236Z" fill="#1CB374"/>
</g>
<g style="mix-blend-mode:multiply">
<path d="M457.724 148.236C479.24 143.812 496.373 163.856 495.377 179.558C494.511 193.216 470.872 207.05 441.97 210.591C437.645 211.12 433.203 211.42 428.701 211.453C432.878 174.123 436.207 152.66 457.724 148.236Z" fill="#1CB374"/>
</g>
<g style="mix-blend-mode:multiply">
<path d="M1472.43 -12.4451C1493.94 -16.8688 1511.08 3.17541 1510.08 18.8773C1509.21 32.5355 1485.58 46.3691 1456.67 49.9096C1452.35 50.4394 1447.91 50.7387 1443.4 50.7725C1447.58 13.4416 1450.91 -8.02131 1472.43 -12.4451Z" fill="#1CB374"/>
</g>
<g style="mix-blend-mode:multiply">
<path d="M1326.53 -12.4451C1305.02 -16.8688 1287.88 3.1754 1288.88 18.8773C1289.75 32.5355 1313.38 46.3691 1342.29 49.9096C1346.61 50.4394 1351.05 50.7387 1355.55 50.7725C1351.38 13.4416 1348.05 -8.02131 1326.53 -12.4451Z" fill="#1CB374"/>
</g>
<g style="mix-blend-mode:multiply">
<path d="M1238.68 -12.4451C1217.17 -16.8688 1200.03 3.1754 1201.03 18.8773C1201.9 32.5355 1225.53 46.3691 1254.44 49.9096C1258.76 50.4394 1263.2 50.7387 1267.7 50.7725C1263.53 13.4416 1260.2 -8.02131 1238.68 -12.4451Z" fill="#1CB374"/>
</g>
<g style="mix-blend-mode:multiply">
<path d="M1208.88 -12.4451C1230.39 -16.8688 1247.53 3.17541 1246.53 18.8773C1245.66 32.5355 1222.03 46.3691 1193.12 49.9096C1188.8 50.4394 1184.36 50.7387 1179.85 50.7725C1184.03 13.4416 1187.36 -8.02131 1208.88 -12.4451Z" fill="#1CB374"/>
</g>
<g style="mix-blend-mode:multiply">
<path d="M1121.03 -12.4451C1142.54 -16.8688 1159.68 3.17541 1158.68 18.8773C1157.81 32.5355 1134.17 46.3691 1105.27 49.9096C1100.95 50.4394 1096.51 50.7387 1092 50.7725C1096.18 13.4416 1099.51 -8.02131 1121.03 -12.4451Z" fill="#1CB374"/>
</g>
<g style="mix-blend-mode:multiply">
<path d="M1033.18 -12.4451C1054.69 -16.8688 1071.83 3.17541 1070.83 18.8773C1069.96 32.5355 1046.32 46.3691 1017.42 49.9096C1013.1 50.4394 1008.66 50.7387 1004.15 50.7725C1008.33 13.4416 1011.66 -8.02131 1033.18 -12.4451Z" fill="#1CB374"/>
</g>
<g style="mix-blend-mode:multiply">
<path d="M887.282 -12.4451C865.765 -16.8688 848.632 3.1754 849.629 18.8773C850.495 32.5355 874.134 46.3691 903.036 49.9096C907.361 50.4394 911.803 50.7387 916.304 50.7725C912.128 13.4416 908.799 -8.02131 887.282 -12.4451Z" fill="#1CB374"/>
</g>
<g style="mix-blend-mode:multiply">
<path d="M857.477 -12.4451C878.993 -16.8688 896.126 3.17541 895.13 18.8773C894.264 32.5355 870.625 46.3691 841.723 49.9096C837.398 50.4394 832.956 50.7387 828.454 50.7725C832.631 13.4416 835.96 -8.02131 857.477 -12.4451Z" fill="#1CB374"/>
</g>
<g style="mix-blend-mode:multiply">
<path d="M769.626 -12.4453C791.143 -16.8691 808.276 3.17517 807.28 18.877C806.413 32.5353 782.775 46.3689 753.873 49.9094C749.548 50.4391 745.106 50.7384 740.604 50.7722C744.781 13.4414 748.11 -8.02155 769.626 -12.4453Z" fill="#1CB374"/>
</g>
<g style="mix-blend-mode:multiply">
<path d="M681.776 -12.4453C703.293 -16.8691 720.426 3.17517 719.43 18.877C718.563 32.5353 694.925 46.3689 666.022 49.9094C661.698 50.4391 657.256 50.7384 652.754 50.7722C656.931 13.4414 660.26 -8.02155 681.776 -12.4453Z" fill="#1CB374"/>
</g>
</g>
</svg>
