<svg width="36" height="35" viewBox="0 0 36 35" fill="none" xmlns="http://www.w3.org/2000/svg">
<rect x="1.25" y="0.875" width="33.25" height="33.25" rx="16.625" stroke="#0C0B0B" stroke-width="1.75"/>
<path d="M18.0735 22.1666L18.0735 23.2228L18.8203 22.4759L21.8044 19.4918C21.8819 19.4143 22.0075 19.4143 22.085 19.4918C22.1624 19.5693 22.1624 19.695 22.085 19.7724L18.0154 23.842C17.9379 23.9195 17.8123 23.9195 17.7348 23.842L17.4348 24.142L17.7348 23.842L13.6653 19.7726C13.6264 19.7337 13.6071 19.6835 13.6071 19.6322C13.6071 19.5809 13.6264 19.5307 13.6653 19.4919C13.7428 19.4145 13.8683 19.4145 13.9458 19.4919L13.9458 19.4919L16.9299 22.4759L17.6767 23.2228L17.6767 22.1666L17.6767 11.298C17.6767 11.1885 17.7656 11.0996 17.8751 11.0996C17.9846 11.0996 18.0735 11.1885 18.0735 11.298L18.0735 22.1666Z" fill="#0C0B0B" stroke="#0C0B0B" stroke-width="0.875"/>
</svg>
