<svg width="151" height="33" viewBox="0 0 151 33" fill="none" xmlns="http://www.w3.org/2000/svg">
<path d="M4.43616 7.01365C14.4114 -7.09732 39.6167 9.88474 26.5759 25.5039C13.535 41.1232 -5.53909 21.1246 4.43616 7.01365Z" stroke="white" stroke-width="0.212152"/>
<path d="M5.45314 26.0206C-6.48637 14.671 12.998 -6.77054 25.9388 7.67819C38.8796 22.1269 17.3927 37.3702 5.45314 26.0206Z" stroke="white" stroke-width="0.424303"/>
<path d="M27.9603 20.144C24.6102 34.3152 -0.59237 29.2251 4.68662 12.8964C9.96562 -3.43234 31.3104 5.97288 27.9603 20.144Z" stroke="white" stroke-width="0.212152"/>
<path fill-rule="evenodd" clip-rule="evenodd" d="M12.5078 7.96965L14.6975 7.38574C18.0662 10.4078 20.2273 12.4308 22.6288 15.755C19.0643 12.483 16.4994 10.616 12.5078 7.96965ZM17.5681 7.53172L15.8164 7.43441L22.4123 15.2417C22.513 15.4794 22.617 15.7152 22.7248 15.949C17.7553 13.5348 14.0962 12.5491 8.56625 11.1323L7.39844 13.322C13.0822 14.2007 16.8618 14.8503 22.725 15.9494L22.7251 15.9495L22.725 15.9494L22.7259 15.9495L22.725 15.9491L22.6052 15.4702L22.6871 15.5671L22.7692 15.9715C18.2623 15.177 14.6923 15.0411 10.1706 14.869H10.1706C9.11212 14.8287 8.00147 14.7864 6.81445 14.7332V17.2148L22.9205 15.9984C22.8707 15.9895 22.8211 15.9807 22.7716 15.9719L22.7327 15.621L22.7552 15.6476L22.7739 15.9012L22.776 15.6723L22.8448 15.7537L22.8418 15.8973L22.8597 15.7714L22.9461 15.8736L22.9199 16.0472L22.9582 15.888L22.9692 15.901L22.9591 15.8843L23.8444 12.2032L23.6011 11.522L22.9474 15.8649L22.8656 15.7301L23.4784 11.4279L22.9512 10.7404L22.846 15.6979L22.7768 15.5842L22.8225 10.5974L22.3359 9.96484L22.7469 15.5351C22.7372 15.5192 22.7275 15.5033 22.7178 15.4875L22.0933 9.86711L21.4121 9.2832L22.6477 15.3727C22.61 15.3112 22.5724 15.2498 22.5348 15.1886L20.9733 8.94262L20.0488 8.31006C20.2574 8.94586 20.457 9.58147 20.6557 10.2139C21.114 11.673 21.5671 13.1152 22.1117 14.5042C20.7223 12.2716 19.3328 10.1824 17.5681 7.53172ZM11.5341 8.40771L9.53906 9.96479C14.4812 11.8529 17.7884 13.1879 22.6769 15.9011C19.2553 12.6692 16.3538 11.068 12.3818 8.876C12.1046 8.72303 11.8222 8.56719 11.5341 8.40771ZM24.819 17.7503V17.1664L23.456 16.2431L23.3479 16.1134L23.278 16.1599L23.2617 16.0469L24.9161 17.02L24.9648 16.5335L23.2617 16.0469L23.2686 16.1662L23.2674 16.167L23.2688 16.1697L23.2703 16.195L23.2073 16.0733L23.1674 16.0902L23.1632 15.9982L23.1602 16.0932L23.1179 16.1111L23.156 16.2253L22.9686 22.0805L23.4065 21.3507L23.1763 16.2864L23.2963 16.6463L23.5537 21.1074L23.8943 20.4262L23.3881 16.9216L24.2857 19.6145L24.378 19.5837L23.407 16.6706L24.5243 18.8281L24.3814 19.5902L24.477 19.6081L24.623 18.8296L24.6261 18.8131L24.6184 18.7982L23.2881 16.2294L23.2836 16.198L24.4839 18.5026L24.5422 18.4723L24.5292 18.5145L24.6222 18.5431L24.8168 17.9106L24.8246 17.8853L24.8077 17.8651L23.8716 16.7417L24.819 17.7503ZM24.5554 18.4293L24.716 17.9071L23.5624 16.5228L24.5554 18.4293ZM22.6778 22.2752L22.1426 22.9077L23.1158 16.0469L22.6778 22.2752ZM21.0234 23.8323L21.8993 23.1997L23.0184 16.0469L21.0234 23.8323ZM16.7523 25.5353H14.7949C18.0205 22.0894 19.8778 19.8218 22.7053 16.3696L22.9674 16.0496L22.9684 16.0469L22.9678 16.049L22.9696 16.0469L22.9673 16.051L20.6328 24.1242L19.5137 24.7568L22.9658 16.0535C20.8627 19.7503 19.322 22.0793 16.7523 25.5353ZM11.4863 24.5621L13.676 25.292C17.5681 22.0137 19.8946 19.7608 22.9211 16.0469C18.7834 19.582 16.0526 21.7138 11.4863 24.5621ZM10.4644 23.7351L8.66406 22.0807C14.5054 20.113 17.6124 18.7146 22.7751 16.0957C19.1622 19.045 16.3102 20.8387 10.4644 23.7351ZM24.9649 16.2418L23.3105 16.0472L24.9649 15.7065V16.2418ZM24.672 14.3926L24.7693 14.9765L23.0176 15.755L24.672 14.3926ZM24.429 13.7114L24.6237 14.2467L23.1152 15.5605L24.429 13.7114ZM24.4775 13.4682L24.1369 13.0303C24.0974 13.1152 24.0577 13.2003 24.0179 13.2856C23.6591 14.0539 23.2943 14.8351 23.0664 15.6092L24.4775 13.4682Z" fill="white"/>
<path d="M14.6975 7.38574L14.7299 7.34952L14.7103 7.33194L14.6849 7.33873L14.6975 7.38574ZM12.5078 7.96965L12.4953 7.92263L12.3908 7.95048L12.4809 8.0102L12.5078 7.96965ZM22.6288 15.755L22.5959 15.7909L22.6683 15.7265L22.6288 15.755ZM15.8164 7.43441L15.8191 7.38582L15.7064 7.37956L15.7792 7.46581L15.8164 7.43441ZM17.5681 7.53172L17.6086 7.50476L17.5951 7.48449L17.5708 7.48314L17.5681 7.53172ZM22.4123 15.2417L22.4571 15.2228L22.4542 15.216L22.4494 15.2103L22.4123 15.2417ZM22.7248 15.949L22.7036 15.9928L22.826 16.0523L22.769 15.9286L22.7248 15.949ZM8.56625 11.1323L8.57832 11.0852L8.5413 11.0757L8.52331 11.1094L8.56625 11.1323ZM7.39844 13.322L7.3555 13.2991L7.32323 13.3596L7.391 13.3701L7.39844 13.322ZM22.725 15.9494L22.7691 15.9289L22.7586 15.9062L22.734 15.9015L22.725 15.9494ZM22.7251 15.9495L22.6809 15.9699L22.7723 15.9378L22.7251 15.9495ZM22.725 15.9494L22.734 15.9015L22.6596 15.8876L22.6778 15.9611L22.725 15.9494ZM22.7259 15.9495L22.717 15.9974L22.7472 15.9058L22.7259 15.9495ZM22.725 15.9491L22.6777 15.9609L22.6833 15.9829L22.7037 15.9928L22.725 15.9491ZM22.6052 15.4702L22.6424 15.4388L22.558 15.482L22.6052 15.4702ZM22.6871 15.5671L22.7348 15.5574L22.7323 15.5452L22.7243 15.5357L22.6871 15.5671ZM22.7692 15.9715L22.7607 16.0194L22.831 16.0318L22.8168 15.9618L22.7692 15.9715ZM10.1706 14.869L10.1725 14.8203H10.1706V14.869ZM10.1706 14.869L10.1688 14.9176H10.1706V14.869ZM6.81445 14.7332L6.81663 14.6846L6.76579 14.6824V14.7332H6.81445ZM6.81445 17.2148H6.76579V17.2673L6.81812 17.2633L6.81445 17.2148ZM22.9205 15.9984L22.9241 16.0469L22.929 15.9505L22.9205 15.9984ZM22.7716 15.9719L22.7233 15.9773L22.7273 16.0135L22.7632 16.0199L22.7716 15.9719ZM22.7327 15.621L22.7698 15.5896L22.6666 15.4674L22.6843 15.6264L22.7327 15.621ZM22.7552 15.6476L22.8037 15.6441L22.8025 15.6283L22.7923 15.6162L22.7552 15.6476ZM22.7739 15.9012L22.7253 15.9048L22.8225 15.9016L22.7739 15.9012ZM22.776 15.6723L22.8131 15.6409L22.7285 15.5407L22.7273 15.6718L22.776 15.6723ZM22.8448 15.7537L22.8935 15.7548L22.8938 15.7364L22.882 15.7223L22.8448 15.7537ZM22.8418 15.8973L22.7931 15.8962L22.8899 15.9041L22.8418 15.8973ZM22.8597 15.7714L22.8969 15.74L22.8268 15.6571L22.8115 15.7645L22.8597 15.7714ZM22.9461 15.8736L22.9942 15.8808L22.9975 15.859L22.9832 15.8422L22.9461 15.8736ZM22.9199 16.0472L22.8718 16.04L22.9672 16.0586L22.9199 16.0472ZM22.9582 15.888L22.9954 15.8566L22.9334 15.7832L22.9109 15.8766L22.9582 15.888ZM22.9692 15.901L22.932 15.9324L23.0108 15.8758L22.9692 15.901ZM22.9591 15.8843L22.9118 15.8729L22.9071 15.8924L22.9175 15.9095L22.9591 15.8843ZM23.8444 12.2032L23.8917 12.2146L23.8951 12.2005L23.8903 12.1868L23.8444 12.2032ZM23.6011 11.522L23.647 11.5056L23.553 11.5147L23.6011 11.522ZM22.9474 15.8649L22.9058 15.8902L22.9755 16.0051L22.9955 15.8722L22.9474 15.8649ZM22.8656 15.7301L22.8174 15.7232L22.8149 15.7405L22.824 15.7553L22.8656 15.7301ZM23.4784 11.4279L23.5266 11.4347L23.5295 11.4145L23.517 11.3983L23.4784 11.4279ZM22.9512 10.7404L22.9898 10.7108L22.9055 10.6008L22.9026 10.7394L22.9512 10.7404ZM22.846 15.6979L22.8044 15.7232L22.8911 15.8656L22.8946 15.6989L22.846 15.6979ZM22.7768 15.5842L22.7281 15.5837L22.728 15.5976L22.7352 15.6094L22.7768 15.5842ZM22.8225 10.5974L22.8712 10.5979L22.8713 10.5811L22.8611 10.5677L22.8225 10.5974ZM22.3359 9.96484L22.3745 9.93518L22.2755 9.80642L22.2874 9.96842L22.3359 9.96484ZM22.7469 15.5351L22.7053 15.5604L22.7954 15.5315L22.7469 15.5351ZM22.7178 15.4875L22.6695 15.4928L22.6706 15.5036L22.6763 15.5128L22.7178 15.4875ZM22.0933 9.86711L22.1417 9.86173L22.1396 9.84265L22.125 9.83016L22.0933 9.86711ZM21.4121 9.2832L21.4438 9.24626L21.3363 9.15411L21.3644 9.29288L21.4121 9.2832ZM22.6477 15.3727L22.6061 15.3981L22.6953 15.363L22.6477 15.3727ZM22.5348 15.1886L22.4876 15.2004L22.4895 15.2077L22.4934 15.2141L22.5348 15.1886ZM20.9733 8.94262L21.0205 8.93082L21.0161 8.9129L21.0008 8.90246L20.9733 8.94262ZM20.0488 8.31006L20.0763 8.2699L19.9579 8.18886L20.0026 8.32522L20.0488 8.31006ZM20.6557 10.2139L20.6093 10.2285L20.6557 10.2139ZM22.1117 14.5042L22.0704 14.5299L22.157 14.4864L22.1117 14.5042ZM9.53906 9.96479L9.50912 9.92643L9.44116 9.97948L9.5217 10.0102L9.53906 9.96479ZM11.5341 8.40771L11.5576 8.36514L11.5295 8.34957L11.5041 8.36936L11.5341 8.40771ZM22.6769 15.9011L22.6533 15.9437L22.7103 15.8658L22.6769 15.9011ZM12.3818 8.876L12.4053 8.8334L12.3818 8.876ZM24.819 17.1664H24.8676V17.1406L24.8463 17.1261L24.819 17.1664ZM24.819 17.7503L24.7835 17.7836L24.8676 17.8731V17.7503H24.819ZM23.456 16.2431L23.4171 16.2755L23.4287 16.2833L23.456 16.2431ZM23.3479 16.1134L23.3853 16.0822L23.3573 16.0487L23.321 16.0729L23.3479 16.1134ZM23.278 16.1599L23.2299 16.1669L23.2409 16.2431L23.305 16.2004L23.278 16.1599ZM23.2617 16.0469L23.2751 16.0001L23.2092 15.9813L23.2131 16.0497L23.2617 16.0469ZM24.9161 17.02L24.8914 17.062L24.957 17.1005L24.9645 17.0249L24.9161 17.02ZM24.9648 16.5335L25.0132 16.5383L25.0172 16.4978L24.9781 16.4867L24.9648 16.5335ZM23.2686 16.1662L23.2956 16.2067L23.3188 16.1912L23.3172 16.1634L23.2686 16.1662ZM23.2674 16.167L23.2404 16.1265L23.2041 16.1507L23.2242 16.1895L23.2674 16.167ZM23.2688 16.1697L23.3174 16.1669L23.3168 16.1565L23.312 16.1472L23.2688 16.1697ZM23.2703 16.195L23.2271 16.2173L23.3188 16.1922L23.2703 16.195ZM23.2073 16.0733L23.2505 16.051L23.2298 16.011L23.1883 16.0285L23.2073 16.0733ZM23.1674 16.0902L23.1188 16.0924L23.122 16.1622L23.1864 16.135L23.1674 16.0902ZM23.1632 15.9982L23.2118 15.996L23.1146 15.9967L23.1632 15.9982ZM23.1602 16.0932L23.1791 16.138L23.2078 16.1259L23.2088 16.0948L23.1602 16.0932ZM23.1179 16.1111L23.099 16.0663L23.0575 16.0838L23.0717 16.1265L23.1179 16.1111ZM23.156 16.2253L23.2046 16.2268L23.2049 16.2182L23.2021 16.2099L23.156 16.2253ZM22.9686 22.0805L22.92 22.079L22.914 22.2662L23.0103 22.1056L22.9686 22.0805ZM23.4065 21.3507L23.4482 21.3757L23.4558 21.3631L23.4551 21.3485L23.4065 21.3507ZM23.1763 16.2864L23.2225 16.271L23.1277 16.2886L23.1763 16.2864ZM23.2963 16.6463L23.3466 16.6434L23.3425 16.6309L23.2963 16.6463ZM23.5537 21.1074L23.5051 21.1102L23.5156 21.2923L23.5972 21.1291L23.5537 21.1074ZM23.8943 20.4262L23.9378 20.4479L23.9446 20.4343L23.9424 20.4192L23.8943 20.4262ZM23.3881 16.9216L23.4342 16.9062L23.3399 16.9285L23.3881 16.9216ZM24.2857 19.6145L24.2395 19.6299L24.2549 19.6761L24.3011 19.6607L24.2857 19.6145ZM24.378 19.5837L24.3934 19.6299L24.4396 19.6145L24.4242 19.5684L24.378 19.5837ZM23.407 16.6706L23.4502 16.6482L23.3608 16.686L23.407 16.6706ZM24.5243 18.8281L24.5721 18.8371L24.5752 18.8206L24.5675 18.8057L24.5243 18.8281ZM24.3814 19.5902L24.3335 19.5812L24.3246 19.629L24.3724 19.638L24.3814 19.5902ZM24.477 19.6081L24.468 19.6559L24.5159 19.6649L24.5248 19.6171L24.477 19.6081ZM24.623 18.8296L24.5752 18.8206V18.8206L24.623 18.8296ZM24.6261 18.8131L24.6739 18.8221L24.677 18.8056L24.6693 18.7907L24.6261 18.8131ZM24.6184 18.7982L24.6616 18.7758L24.6184 18.7982ZM23.2881 16.2294L23.2399 16.2363L23.2411 16.2445L23.2449 16.2517L23.2881 16.2294ZM23.2836 16.198L23.3267 16.1756L23.2354 16.205L23.2836 16.198ZM24.4839 18.5026L24.4407 18.5251L24.4632 18.5683L24.5063 18.5458L24.4839 18.5026ZM24.5422 18.4723L24.5887 18.4866L24.6229 18.3753L24.5197 18.4291L24.5422 18.4723ZM24.5292 18.5145L24.4827 18.5002L24.4683 18.5467L24.5149 18.561L24.5292 18.5145ZM24.6222 18.5431L24.6079 18.5896L24.6544 18.6039L24.6687 18.5574L24.6222 18.5431ZM24.8168 17.9106L24.7703 17.8962V17.8962L24.8168 17.9106ZM24.8246 17.8853L24.8711 17.8997L24.8788 17.8745L24.8619 17.8542L24.8246 17.8853ZM24.8077 17.8651L24.8451 17.8339L24.8451 17.8339L24.8077 17.8651ZM23.8716 16.7417L23.907 16.7084L23.8342 16.7729L23.8716 16.7417ZM24.716 17.9071L24.7626 17.9214L24.7703 17.8962L24.7534 17.876L24.716 17.9071ZM24.5554 18.4293L24.5122 18.4518L24.567 18.5569L24.6019 18.4436L24.5554 18.4293ZM23.5624 16.5228L23.5998 16.4916L23.5193 16.5453L23.5624 16.5228ZM22.1426 22.9077L22.0944 22.9009L22.0707 23.068L22.1797 22.9392L22.1426 22.9077ZM22.6778 22.2752L22.715 22.3066L22.7252 22.2945L22.7264 22.2786L22.6778 22.2752ZM23.1158 16.0469L23.1643 16.0503L23.0676 16.04L23.1158 16.0469ZM21.8993 23.1997L21.9278 23.2391L21.9442 23.2273L21.9474 23.2072L21.8993 23.1997ZM21.0234 23.8323L20.9763 23.8202L20.9429 23.9504L21.0519 23.8717L21.0234 23.8323ZM23.0184 16.0469L23.0665 16.0544L22.9713 16.0348L23.0184 16.0469ZM14.7949 25.5353L14.7594 25.5021L14.6827 25.584H14.7949V25.5353ZM16.7523 25.5353V25.584H16.7767L16.7913 25.5643L16.7523 25.5353ZM22.7053 16.3696L22.6676 16.3387L22.6676 16.3387L22.7053 16.3696ZM22.9674 16.0496L23.005 16.0804L23.0098 16.0746L23.0126 16.0675L22.9674 16.0496ZM22.9684 16.0469L23.0152 16.0604L22.9232 16.0289L22.9684 16.0469ZM22.9678 16.049L22.9211 16.0355L23.0055 16.0799L22.9678 16.049ZM22.9696 16.0469L23.0119 16.0709L22.9319 16.016L22.9696 16.0469ZM22.9673 16.051L22.9238 16.0262L22.9205 16.0374L22.9673 16.051ZM20.6328 24.1242L20.6568 24.1666L20.674 24.1568L20.6796 24.1377L20.6328 24.1242ZM19.5137 24.7568L19.4684 24.7388L19.4176 24.867L19.5376 24.7991L19.5137 24.7568ZM22.9658 16.0535L23.011 16.0714L22.9235 16.0294L22.9658 16.0535ZM13.676 25.292L13.6606 25.3382L13.6865 25.3468L13.7073 25.3292L13.676 25.292ZM11.4863 24.5621L11.4606 24.5209L11.3728 24.5756L11.4709 24.6083L11.4863 24.5621ZM22.9211 16.0469L22.9588 16.0776L22.8895 16.0099L22.9211 16.0469ZM8.66406 22.0807L8.64853 22.0346L8.57055 22.0609L8.63114 22.1165L8.66406 22.0807ZM10.4644 23.7351L10.4315 23.7709L10.4561 23.7935L10.486 23.7787L10.4644 23.7351ZM22.7751 16.0957L22.8058 16.1334L22.7531 16.0523L22.7751 16.0957ZM23.3105 16.0472L23.3007 15.9995L23.3049 16.0955L23.3105 16.0472ZM24.9649 16.2418L24.9593 16.2901L25.0136 16.2965V16.2418H24.9649ZM24.9649 15.7065H25.0136V15.6468L24.9551 15.6589L24.9649 15.7065ZM24.7693 14.9765L24.7891 15.0209L24.8235 15.0056L24.8173 14.9685L24.7693 14.9765ZM24.672 14.3926L24.72 14.3846L24.7061 14.3014L24.641 14.355L24.672 14.3926ZM23.0176 15.755L22.9866 15.7175L23.0373 15.7995L23.0176 15.755ZM24.6237 14.2467L24.6556 14.2834L24.6808 14.2614L24.6694 14.23L24.6237 14.2467ZM24.429 13.7114L24.4747 13.6948L24.4431 13.6077L24.3894 13.6832L24.429 13.7114ZM23.1152 15.5605L23.0756 15.5323L23.1472 15.5971L23.1152 15.5605ZM24.1369 13.0303L24.1753 13.0004L24.1264 12.9375L24.0928 13.0098L24.1369 13.0303ZM24.4775 13.4682L24.5181 13.495L24.5373 13.4659L24.5159 13.4383L24.4775 13.4682ZM24.0179 13.2856L24.062 13.3062L24.062 13.3062L24.0179 13.2856ZM23.0664 15.6092L23.0197 15.5954L23.107 15.636L23.0664 15.6092ZM14.6849 7.33873L12.4953 7.92263L12.5203 8.01666L14.71 7.43276L14.6849 7.33873ZM22.6683 15.7265C20.2635 12.3978 18.0991 10.372 14.7299 7.34952L14.665 7.42196C18.0333 10.4437 20.1911 12.4638 22.5894 15.7835L22.6683 15.7265ZM12.4809 8.0102C16.4712 10.6557 19.0339 12.5211 22.5959 15.7909L22.6617 15.7192C19.0947 12.4449 16.5276 10.5764 12.5347 7.92909L12.4809 8.0102ZM15.8137 7.48299L17.5654 7.58031L17.5708 7.48314L15.8191 7.38582L15.8137 7.48299ZM22.4494 15.2103L15.8536 7.403L15.7792 7.46581L22.3751 15.2731L22.4494 15.2103ZM22.769 15.9286C22.6614 15.6953 22.5576 15.4599 22.4571 15.2228L22.3675 15.2607C22.4684 15.4988 22.5726 15.7351 22.6807 15.9694L22.769 15.9286ZM8.55417 11.1795C14.0837 12.5961 17.7387 13.5809 22.7036 15.9928L22.7461 15.9052C17.7718 13.4888 14.1087 12.5021 8.57832 11.0852L8.55417 11.1795ZM7.44137 13.3449L8.60918 11.1552L8.52331 11.1094L7.3555 13.2991L7.44137 13.3449ZM22.734 15.9015C16.8703 14.8024 13.0902 14.1527 7.40587 13.2739L7.391 13.3701C13.0742 14.2487 16.8533 14.8982 22.716 15.9972L22.734 15.9015ZM22.7692 15.929L22.7691 15.9289L22.6809 15.9698L22.6809 15.9699L22.7692 15.929ZM22.6778 15.9611L22.6778 15.9612L22.7723 15.9378L22.7723 15.9377L22.6778 15.9611ZM22.7349 15.9017L22.734 15.9015L22.7161 15.9972L22.717 15.9974L22.7349 15.9017ZM22.7037 15.9928L22.7046 15.9933L22.7472 15.9058L22.7462 15.9053L22.7037 15.9928ZM22.558 15.482L22.6777 15.9609L22.7722 15.9373L22.6524 15.4584L22.558 15.482ZM22.7243 15.5357L22.6424 15.4388L22.5681 15.5016L22.6499 15.5985L22.7243 15.5357ZM22.6394 15.5767L22.7215 15.9812L22.8168 15.9618L22.7348 15.5574L22.6394 15.5767ZM22.7776 15.9236C18.2671 15.1285 14.694 14.9925 10.1725 14.8204L10.1688 14.9176C14.6906 15.0897 18.2576 15.2256 22.7607 16.0194L22.7776 15.9236ZM10.1706 14.8203H10.1706V14.9176H10.1706V14.8203ZM10.1725 14.8204C9.11395 14.7801 8.00347 14.7378 6.81663 14.6846L6.81228 14.7818C7.99948 14.835 9.11029 14.8773 10.1688 14.9176L10.1725 14.8204ZM6.76579 14.7332V17.2148H6.86311V14.7332H6.76579ZM6.81812 17.2633L22.9241 16.0469L22.9168 15.9498L6.81079 17.1663L6.81812 17.2633ZM22.929 15.9505C22.8793 15.9416 22.8296 15.9328 22.7801 15.924L22.7632 16.0199C22.8127 16.0286 22.8622 16.0374 22.9119 16.0463L22.929 15.9505ZM22.82 15.9666L22.781 15.6156L22.6843 15.6264L22.7233 15.9773L22.82 15.9666ZM22.7923 15.6162L22.7698 15.5896L22.6955 15.6524L22.718 15.679L22.7923 15.6162ZM22.8224 15.8976L22.8037 15.6441L22.7066 15.6512L22.7253 15.9048L22.8224 15.8976ZM22.7273 15.6718L22.7252 15.9008L22.8225 15.9016L22.8246 15.6727L22.7273 15.6718ZM22.882 15.7223L22.8131 15.6409L22.7388 15.7037L22.8076 15.7852L22.882 15.7223ZM22.8904 15.8983L22.8935 15.7548L22.7962 15.7527L22.7931 15.8962L22.8904 15.8983ZM22.8115 15.7645L22.7936 15.8904L22.8899 15.9041L22.9079 15.7782L22.8115 15.7645ZM22.9832 15.8422L22.8969 15.74L22.8225 15.8028L22.9089 15.905L22.9832 15.8422ZM22.968 16.0545L22.9942 15.8808L22.8979 15.8664L22.8718 16.04L22.968 16.0545ZM22.9109 15.8766L22.8726 16.0358L22.9672 16.0586L23.0055 15.8994L22.9109 15.8766ZM23.0064 15.8696L22.9954 15.8566L22.921 15.9194L22.932 15.9324L23.0064 15.8696ZM22.9175 15.9095L22.9276 15.9262L23.0108 15.8758L23.0007 15.8591L22.9175 15.9095ZM23.7971 12.1918L22.9118 15.8729L23.0064 15.8957L23.8917 12.2146L23.7971 12.1918ZM23.5553 11.5383L23.7986 12.2196L23.8903 12.1868L23.647 11.5056L23.5553 11.5383ZM22.9955 15.8722L23.6493 11.5292L23.553 11.5147L22.8992 15.8577L22.9955 15.8722ZM22.824 15.7553L22.9058 15.8902L22.989 15.8397L22.9072 15.7049L22.824 15.7553ZM23.4302 11.421L22.8174 15.7232L22.9137 15.737L23.5266 11.4347L23.4302 11.421ZM22.9126 10.77L23.4398 11.4575L23.517 11.3983L22.9898 10.7108L22.9126 10.77ZM22.8946 15.6989L22.9999 10.7414L22.9026 10.7394L22.7973 15.6969L22.8946 15.6989ZM22.7352 15.6094L22.8044 15.7232L22.8876 15.6726L22.8183 15.5589L22.7352 15.6094ZM22.7739 10.597L22.7281 15.5837L22.8254 15.5846L22.8712 10.5979L22.7739 10.597ZM22.2974 9.99451L22.784 10.6271L22.8611 10.5677L22.3745 9.93518L22.2974 9.99451ZM22.7954 15.5315L22.3845 9.96126L22.2874 9.96842L22.6983 15.5387L22.7954 15.5315ZM22.6763 15.5128C22.686 15.5287 22.6956 15.5445 22.7053 15.5604L22.7884 15.5097C22.7787 15.4939 22.769 15.478 22.7593 15.4621L22.6763 15.5128ZM22.7662 15.4821L22.1417 9.86173L22.045 9.87248L22.6695 15.4928L22.7662 15.4821ZM22.125 9.83016L21.4438 9.24626L21.3804 9.32015L22.0617 9.90405L22.125 9.83016ZM21.3644 9.29288L22.6 15.3823L22.6953 15.363L21.4598 9.27353L21.3644 9.29288ZM22.4934 15.2141C22.5309 15.2753 22.5685 15.3366 22.6061 15.3981L22.6892 15.3473C22.6515 15.2857 22.6139 15.2244 22.5763 15.1632L22.4934 15.2141ZM20.9261 8.95442L22.4876 15.2004L22.5821 15.1768L21.0205 8.93082L20.9261 8.95442ZM20.0214 8.35022L20.9459 8.98278L21.0008 8.90246L20.0763 8.2699L20.0214 8.35022ZM20.7021 10.1993C20.5035 9.56694 20.3037 8.93104 20.0951 8.29489L20.0026 8.32522C20.211 8.96069 20.4106 9.59601 20.6093 10.2285L20.7021 10.1993ZM22.157 14.4864C21.6131 13.0993 21.1606 11.6587 20.7021 10.1993L20.6093 10.2285C21.0675 11.6873 21.5211 13.1312 22.0664 14.5219L22.157 14.4864ZM17.5276 7.55869C19.2924 10.2095 20.6814 12.2981 22.0704 14.5299L22.153 14.4785C20.7631 12.2452 19.3733 10.1553 17.6086 7.50476L17.5276 7.55869ZM9.569 10.0032L11.564 8.44607L11.5041 8.36936L9.50912 9.92643L9.569 10.0032ZM22.7005 15.8586C17.809 13.1437 14.4994 11.8077 9.55643 9.91934L9.5217 10.0102C14.4631 11.898 17.7677 13.232 22.6533 15.9437L22.7005 15.8586ZM12.3583 8.9186C16.3302 11.1106 19.2269 12.7093 22.6435 15.9365L22.7103 15.8658C19.2838 12.6292 16.3773 11.0254 12.4053 8.8334L12.3583 8.9186ZM11.5105 8.45029C11.7987 8.60978 12.0811 8.76564 12.3583 8.9186L12.4053 8.8334C12.1281 8.68043 11.8457 8.5246 11.5576 8.36514L11.5105 8.45029ZM24.7703 17.1664V17.7503H24.8676V17.1664H24.7703ZM23.4287 16.2833L24.7917 17.2066L24.8463 17.1261L23.4833 16.2028L23.4287 16.2833ZM23.3105 16.1445L23.4186 16.2742L23.4934 16.2119L23.3853 16.0822L23.3105 16.1445ZM23.305 16.2004L23.3749 16.1539L23.321 16.0729L23.2511 16.1194L23.305 16.2004ZM23.2136 16.0538L23.2299 16.1669L23.3262 16.153L23.3099 16.0399L23.2136 16.0538ZM24.9408 16.9781L23.2864 16.0049L23.237 16.0888L24.8914 17.062L24.9408 16.9781ZM24.9164 16.5286L24.8677 17.0152L24.9645 17.0249L25.0132 16.5383L24.9164 16.5286ZM23.2484 16.0937L24.9514 16.5802L24.9781 16.4867L23.2751 16.0001L23.2484 16.0937ZM23.3172 16.1634L23.3103 16.0441L23.2131 16.0497L23.22 16.169L23.3172 16.1634ZM23.2944 16.2075L23.2956 16.2067L23.2416 16.1257L23.2404 16.1265L23.2944 16.2075ZM23.312 16.1472L23.3105 16.1445L23.2242 16.1895L23.2257 16.1922L23.312 16.1472ZM23.3188 16.1922L23.3174 16.1669L23.2202 16.1725L23.2217 16.1978L23.3188 16.1922ZM23.1641 16.0957L23.2271 16.2173L23.3135 16.1726L23.2505 16.051L23.1641 16.0957ZM23.1864 16.135L23.2262 16.1181L23.1883 16.0285L23.1485 16.0453L23.1864 16.135ZM23.1146 16.0004L23.1188 16.0924L23.216 16.088L23.2118 15.996L23.1146 16.0004ZM23.2088 16.0948L23.2119 15.9998L23.1146 15.9967L23.1116 16.0917L23.2088 16.0948ZM23.1368 16.1559L23.1791 16.138L23.1413 16.0484L23.099 16.0663L23.1368 16.1559ZM23.2021 16.2099L23.1641 16.0957L23.0717 16.1265L23.1098 16.2407L23.2021 16.2099ZM23.0172 22.0821L23.2046 16.2268L23.1073 16.2237L22.92 22.079L23.0172 22.0821ZM23.3648 21.3256L22.9269 22.0555L23.0103 22.1056L23.4482 21.3757L23.3648 21.3256ZM23.1277 16.2886L23.3579 21.3529L23.4551 21.3485L23.2249 16.2842L23.1277 16.2886ZM23.3425 16.6309L23.2225 16.271L23.1302 16.3018L23.2501 16.6617L23.3425 16.6309ZM23.6022 21.1046L23.3449 16.6435L23.2477 16.6491L23.5051 21.1102L23.6022 21.1046ZM23.8508 20.4044L23.5101 21.0856L23.5972 21.1291L23.9378 20.4479L23.8508 20.4044ZM23.3399 16.9285L23.8461 20.4331L23.9424 20.4192L23.4362 16.9146L23.3399 16.9285ZM24.3319 19.5991L23.4342 16.9062L23.3419 16.937L24.2395 19.6299L24.3319 19.5991ZM24.3626 19.5376L24.2703 19.5684L24.3011 19.6607L24.3934 19.6299L24.3626 19.5376ZM23.3608 16.686L24.3319 19.5991L24.4242 19.5684L23.4532 16.6552L23.3608 16.686ZM24.5675 18.8057L23.4502 16.6482L23.3638 16.693L24.481 18.8505L24.5675 18.8057ZM24.4292 19.5991L24.5721 18.8371L24.4764 18.8191L24.3335 19.5812L24.4292 19.5991ZM24.486 19.5603L24.3903 19.5423L24.3724 19.638L24.468 19.6559L24.486 19.5603ZM24.5752 18.8206L24.4292 19.5991L24.5248 19.6171L24.6708 18.8385L24.5752 18.8206ZM24.5783 18.8041L24.5752 18.8206L24.6708 18.8385L24.6739 18.8221L24.5783 18.8041ZM24.5752 18.8206L24.5829 18.8355L24.6693 18.7907L24.6616 18.7758L24.5752 18.8206ZM23.2449 16.2517L24.5752 18.8206L24.6616 18.7758L23.3313 16.207L23.2449 16.2517ZM23.2354 16.205L23.2399 16.2363L23.3362 16.2224L23.3317 16.1911L23.2354 16.205ZM24.527 18.4801L23.3267 16.1756L23.2404 16.2205L24.4407 18.5251L24.527 18.4801ZM24.5197 18.4291L24.4614 18.4595L24.5063 18.5458L24.5646 18.5154L24.5197 18.4291ZM24.5757 18.5288L24.5887 18.4866L24.4957 18.4579L24.4827 18.5002L24.5757 18.5288ZM24.6365 18.4966L24.5435 18.468L24.5149 18.561L24.6079 18.5896L24.6365 18.4966ZM24.7703 17.8962L24.5757 18.5288L24.6687 18.5574L24.8633 17.9249L24.7703 17.8962ZM24.7781 17.871L24.7703 17.8962L24.8633 17.9249L24.8711 17.8997L24.7781 17.871ZM24.7703 17.8962L24.7872 17.9165L24.8619 17.8542L24.8451 17.8339L24.7703 17.8962ZM23.8342 16.7729L24.7703 17.8962L24.8451 17.8339L23.9089 16.7106L23.8342 16.7729ZM24.8544 17.717L23.907 16.7084L23.8361 16.775L24.7835 17.7836L24.8544 17.717ZM24.6695 17.8928L24.5089 18.415L24.6019 18.4436L24.7626 17.9214L24.6695 17.8928ZM23.525 16.5539L24.6787 17.9383L24.7534 17.876L23.5998 16.4916L23.525 16.5539ZM24.5985 18.4068L23.6056 16.5003L23.5193 16.5453L24.5122 18.4518L24.5985 18.4068ZM22.1797 22.9392L22.715 22.3066L22.6407 22.2438L22.1054 22.8763L22.1797 22.9392ZM23.0676 16.04L22.0944 22.9009L22.1908 22.9146L23.1639 16.0537L23.0676 16.04ZM22.7264 22.2786L23.1643 16.0503L23.0672 16.0435L22.6293 22.2718L22.7264 22.2786ZM21.8708 23.1602L20.9949 23.7928L21.0519 23.8717L21.9278 23.2391L21.8708 23.1602ZM22.9704 16.0394L21.8512 23.1922L21.9474 23.2072L23.0665 16.0544L22.9704 16.0394ZM21.0706 23.8443L23.0656 16.059L22.9713 16.0348L20.9763 23.8202L21.0706 23.8443ZM14.7949 25.584H16.7523V25.4867H14.7949V25.584ZM22.6676 16.3387C19.8403 19.7908 17.9838 22.0574 14.7594 25.5021L14.8304 25.5686C18.0572 22.1214 19.9154 19.8527 22.7429 16.4004L22.6676 16.3387ZM22.9297 16.0187L22.6676 16.3387L22.7429 16.4004L23.005 16.0804L22.9297 16.0187ZM22.9232 16.0289L22.9221 16.0316L23.0126 16.0675L23.0137 16.0648L22.9232 16.0289ZM23.0146 16.0625L23.0152 16.0604L22.9217 16.0334L22.9211 16.0355L23.0146 16.0625ZM22.9319 16.016L22.9302 16.0182L23.0055 16.0799L23.0072 16.0777L22.9319 16.016ZM23.0096 16.075L23.0119 16.0709L22.9273 16.0228L22.925 16.0269L23.0096 16.075ZM20.6796 24.1377L23.014 16.0645L22.9205 16.0374L20.5861 24.1107L20.6796 24.1377ZM19.5376 24.7991L20.6568 24.1666L20.6089 24.0819L19.4897 24.7144L19.5376 24.7991ZM22.9206 16.0356L19.4684 24.7388L19.5589 24.7747L23.011 16.0714L22.9206 16.0356ZM16.7913 25.5643C19.3621 22.1068 20.9039 19.7762 23.0081 16.0776L22.9235 16.0294C20.8215 19.7244 19.2818 22.0517 16.7132 25.5063L16.7913 25.5643ZM13.6914 25.2459L11.5017 24.516L11.4709 24.6083L13.6606 25.3382L13.6914 25.2459ZM22.8834 16.0161C19.8592 19.7271 17.535 21.9779 13.6446 25.2548L13.7073 25.3292C17.6012 22.0495 19.9299 19.7944 22.9588 16.0776L22.8834 16.0161ZM11.5121 24.6034C16.081 21.7535 18.8138 19.6201 22.9527 16.0839L22.8895 16.0099C18.753 19.544 16.0242 21.6742 11.4606 24.5209L11.5121 24.6034ZM8.63114 22.1165L10.4315 23.7709L10.4974 23.6993L8.69699 22.0449L8.63114 22.1165ZM22.7531 16.0523C17.592 18.6704 14.4872 20.0678 8.64853 22.0346L8.6796 22.1268C14.5236 20.1582 17.6328 18.7588 22.7971 16.1391L22.7531 16.0523ZM10.486 23.7787C16.3341 20.8812 19.1894 19.0856 22.8058 16.1334L22.7443 16.058C19.135 19.0044 16.2864 20.7963 10.4428 23.6915L10.486 23.7787ZM23.3049 16.0955L24.9593 16.2901L24.9706 16.1935L23.3162 15.9988L23.3049 16.0955ZM24.9551 15.6589L23.3007 15.9995L23.3204 16.0948L24.9748 15.7542L24.9551 15.6589ZM25.0136 16.2418V15.7065H24.9163V16.2418H25.0136ZM24.8173 14.9685L24.72 14.3846L24.624 14.4006L24.7213 14.9845L24.8173 14.9685ZM23.0373 15.7995L24.7891 15.0209L24.7495 14.932L22.9978 15.7106L23.0373 15.7995ZM24.641 14.355L22.9866 15.7175L23.0485 15.7926L24.7029 14.4301L24.641 14.355ZM24.6694 14.23L24.4747 13.6948L24.3833 13.7281L24.5779 14.2633L24.6694 14.23ZM23.1472 15.5971L24.6556 14.2834L24.5917 14.21L23.0833 15.5238L23.1472 15.5971ZM24.3894 13.6832L23.0756 15.5323L23.1549 15.5886L24.4687 13.7396L24.3894 13.6832ZM24.0985 13.0601L24.4391 13.4981L24.5159 13.4383L24.1753 13.0004L24.0985 13.0601ZM24.062 13.3062C24.1018 13.2209 24.1415 13.1358 24.181 13.0508L24.0928 13.0098C24.0533 13.0946 24.0136 13.1797 23.9738 13.265L24.062 13.3062ZM23.1131 15.6229C23.3398 14.853 23.7029 14.0752 24.062 13.3062L23.9738 13.265C23.6154 14.0326 23.2489 14.8172 23.0197 15.5954L23.1131 15.6229ZM24.4369 13.4414L23.0258 15.5824L23.107 15.636L24.5181 13.495L24.4369 13.4414Z" fill="white"/>
<path d="M41.8647 10.0725C42.4085 10.0725 42.9368 10.1658 43.4496 10.3522C43.9779 10.5387 44.4829 10.8106 44.9646 11.168C45.0423 11.2457 45.1278 11.3234 45.221 11.4011C45.2987 11.3234 45.3842 11.2457 45.4774 11.168C45.9591 10.8106 46.4563 10.5387 46.9691 10.3522C47.4974 10.1658 48.0257 10.0725 48.554 10.0725C49.0978 10.0725 49.6261 10.1658 50.1389 10.3522C50.6672 10.5387 51.1645 10.8184 51.6306 11.1913C52.1123 11.5487 52.5318 12.0304 52.8892 12.6364C53.2621 13.2424 53.4486 13.9649 53.4486 14.804V23.2181C53.3554 24.1504 52.8426 24.6554 51.9103 24.7331C51.4752 24.7331 51.0945 24.5932 50.7682 24.3135C50.4575 24.0183 50.3021 23.6532 50.3021 23.2181V14.9905C50.3021 14.6175 50.2321 14.3068 50.0923 14.0582C49.9525 13.794 49.7971 13.592 49.6261 13.4522C49.4552 13.2968 49.2765 13.188 49.0901 13.1259C48.9036 13.0482 48.7171 13.0093 48.5307 13.0093C48.3442 13.0093 48.1578 13.0482 47.9713 13.1259C47.8004 13.188 47.6295 13.2968 47.4585 13.4522C47.2876 13.592 47.1322 13.794 46.9924 14.0582C46.8525 14.3068 46.7748 14.6175 46.7593 14.9905V23.2181C46.6661 24.1504 46.1533 24.6554 45.221 24.7331C44.7859 24.7331 44.4052 24.5932 44.0789 24.3135C43.7682 24.0183 43.6128 23.6532 43.6128 23.2181V14.9905C43.6128 14.6175 43.5428 14.3068 43.403 14.0582C43.2632 13.794 43.1078 13.592 42.9368 13.4522C42.7659 13.2968 42.5872 13.188 42.4008 13.1259C42.2143 13.0482 42.0278 13.0093 41.8414 13.0093C41.6549 13.0093 41.4685 13.0482 41.282 13.1259C41.1111 13.188 40.9402 13.2968 40.7692 13.4522C40.5983 13.592 40.4429 13.794 40.3031 14.0582C40.1632 14.3068 40.0855 14.6175 40.07 14.9905V23.2181C39.9923 24.1504 39.4873 24.6554 38.555 24.7331C38.1199 24.7331 37.7392 24.5932 37.4129 24.3135C37.1022 24.0183 36.9468 23.6532 36.9468 23.2181V14.804C36.9778 13.9649 37.1721 13.2424 37.5295 12.6364C37.8868 12.0304 38.3064 11.5487 38.7881 11.1913C39.2698 10.8184 39.767 10.5387 40.2798 10.3522C40.8081 10.1658 41.3364 10.0725 41.8647 10.0725ZM61.2101 24.4534C59.8427 24.4068 58.8094 24.0882 58.1101 23.4978C57.4109 22.8918 56.9059 22.2158 56.5951 21.47C56.2844 20.7086 56.129 19.9395 56.129 19.1625C56.129 18.3545 56.2766 17.5776 56.5718 16.8318C56.8826 16.0704 57.3876 15.3945 58.0868 14.804C58.8016 14.198 59.7028 13.8872 60.7905 13.8717H68.3422C69.4299 13.8872 70.3234 14.198 71.0226 14.804C71.7374 15.3945 72.2424 16.0704 72.5376 16.8318C72.8484 17.5776 73.0038 18.3545 73.0038 19.1625C73.0038 19.9395 72.8484 20.7086 72.5376 21.47C72.2268 22.2158 71.7218 22.8918 71.0226 23.4978C70.3234 24.0882 69.2901 24.4068 67.9227 24.4534H61.2101ZM60.6973 16.9949C60.4021 16.9949 60.1457 17.1192 59.9281 17.3678C59.7106 17.6009 59.5475 17.8806 59.4387 18.2069C59.3455 18.5177 59.2988 18.8285 59.2988 19.1392C59.2988 19.4655 59.3455 19.7918 59.4387 20.1182C59.5475 20.4289 59.7106 20.7086 59.9281 20.9572C60.1457 21.1903 60.4021 21.3146 60.6973 21.3302H68.4355C68.7307 21.3146 68.9871 21.1903 69.2046 20.9572C69.4221 20.7086 69.5775 20.4289 69.6708 20.1182C69.7795 19.7918 69.8339 19.4655 69.8339 19.1392C69.8339 18.8285 69.7795 18.5177 69.6708 18.2069C69.5775 17.8806 69.4221 17.6009 69.2046 17.3678C68.9871 17.1192 68.7307 16.9949 68.4355 16.9949H60.6973ZM76.1736 16.8085C76.4688 16.0626 76.9661 15.3945 77.6653 14.804C78.3801 14.198 79.2813 13.8872 80.369 13.8717H89.1327C89.5677 13.8717 89.9329 14.0271 90.2281 14.3379C90.5389 14.6331 90.6943 14.9982 90.6943 15.4333C90.6943 15.8684 90.5389 16.2413 90.2281 16.5521C89.9329 16.8473 89.5677 16.9949 89.1327 16.9949H80.2758C79.9805 16.9949 79.7241 17.1192 79.5066 17.3678C79.2891 17.6009 79.1181 17.8806 78.9938 18.2069C78.8851 18.5332 78.8307 18.844 78.8307 19.1392V23.2181C78.7374 24.1504 78.2247 24.6554 77.2924 24.7331C76.8573 24.7331 76.4766 24.5932 76.1503 24.3135C75.8395 24.0183 75.6841 23.6532 75.6841 23.2181V19.1625H75.7074C75.7074 18.3545 75.8628 17.5698 76.1736 16.8085ZM106.031 23.2181V17.6009C106.031 17.2125 105.829 17.0105 105.425 16.9949H97.2671C96.9718 17.0105 96.7154 17.1425 96.4979 17.3912C96.2804 17.6242 96.1172 17.9039 96.0084 18.2302C95.9152 18.541 95.8686 18.8595 95.8686 19.1858C95.8686 19.4966 95.9152 19.8152 96.0084 20.1415C96.1172 20.4522 96.2804 20.7319 96.4979 20.9805C96.7154 21.2136 96.9718 21.3302 97.2671 21.3302H103.234C103.669 21.3302 104.034 21.4855 104.329 21.7963C104.64 22.0915 104.795 22.4567 104.795 22.8918C104.795 23.3268 104.64 23.692 104.329 23.9872C104.034 24.298 103.669 24.4534 103.234 24.4534H97.3603C96.2726 24.4378 95.3714 24.1348 94.6566 23.5444C93.9574 22.9384 93.4524 22.2625 93.1416 21.5166C92.8464 20.7552 92.6987 19.9705 92.6987 19.1625C92.6987 18.3856 92.8541 17.6242 93.1649 16.8784C93.4757 16.117 93.9807 15.4411 94.6799 14.8506C95.3791 14.2446 96.4124 13.9183 97.7798 13.8717H107.569C108.004 13.8717 108.377 14.0193 108.688 14.3145C108.999 14.5942 109.162 14.9516 109.177 15.3867V23.2181C109.177 23.6532 109.014 24.0183 108.688 24.3135C108.377 24.5932 108.004 24.7331 107.569 24.7331C106.637 24.6554 106.124 24.1504 106.031 23.2181ZM117.125 24.7564C116.597 24.7564 116.069 24.6632 115.54 24.4767C115.028 24.2902 114.53 24.0183 114.049 23.6609C113.567 23.288 113.147 22.7985 112.79 22.1925C112.433 21.5865 112.238 20.864 112.207 20.0249V15.0604C112.207 14.6253 112.363 14.2679 112.673 13.9882C113 13.693 113.38 13.5454 113.816 13.5454C114.748 13.6231 115.253 14.1281 115.331 15.0604V19.8385C115.346 20.2114 115.424 20.5299 115.564 20.7941C115.703 21.0427 115.859 21.2447 116.03 21.4001C116.201 21.5399 116.372 21.6487 116.543 21.7264C116.729 21.7885 116.915 21.8196 117.102 21.8196C117.288 21.8196 117.475 21.7885 117.661 21.7264C117.848 21.6487 118.026 21.5399 118.197 21.4001C118.368 21.2447 118.524 21.0427 118.664 20.7941C118.803 20.5299 118.873 20.2114 118.873 19.8385V15.0604C118.873 14.6253 119.029 14.2679 119.339 13.9882C119.666 13.693 120.046 13.5454 120.482 13.5454C121.414 13.6231 121.927 14.1281 122.02 15.0604V19.8385C122.035 20.2114 122.113 20.5222 122.253 20.7708C122.393 21.0349 122.548 21.2447 122.719 21.4001C122.89 21.5399 123.061 21.6487 123.232 21.7264C123.418 21.7885 123.605 21.8196 123.791 21.8196C123.978 21.8196 124.164 21.7885 124.351 21.7264C124.537 21.6487 124.716 21.5399 124.887 21.4001C125.058 21.2447 125.213 21.0427 125.353 20.7941C125.493 20.5299 125.563 20.2114 125.563 19.8385V15.0604C125.563 14.6253 125.718 14.2679 126.029 13.9882C126.355 13.693 126.736 13.5454 127.171 13.5454C128.103 13.6231 128.616 14.1281 128.709 15.0604V20.0249C128.709 20.864 128.523 21.5865 128.15 22.1925C127.792 22.7985 127.373 23.288 126.891 23.6609C126.425 24.0183 125.928 24.2902 125.399 24.4767C124.887 24.6632 124.358 24.7564 123.815 24.7564C123.286 24.7564 122.758 24.6632 122.23 24.4767C121.717 24.2902 121.22 24.0105 120.738 23.6376C120.645 23.5755 120.559 23.5055 120.482 23.4278C120.388 23.5055 120.303 23.5755 120.225 23.6376C119.743 24.0105 119.238 24.2902 118.71 24.4767C118.197 24.6632 117.669 24.7564 117.125 24.7564ZM136.61 24.4534C135.243 24.4068 134.21 24.0882 133.51 23.4978C132.811 22.8918 132.306 22.2158 131.995 21.47C131.685 20.7086 131.529 19.9395 131.529 19.1625C131.529 18.3545 131.677 17.5776 131.972 16.8318C132.283 16.0704 132.788 15.3945 133.487 14.804C134.202 14.198 135.103 13.8872 136.191 13.8717H143.743C144.83 13.8872 145.724 14.198 146.423 14.804C147.138 15.3945 147.643 16.0704 147.938 16.8318C148.249 17.5776 148.404 18.3545 148.404 19.1625C148.404 19.9395 148.249 20.7086 147.938 21.47C147.627 22.2158 147.122 22.8918 146.423 23.4978C145.724 24.0882 144.69 24.4068 143.323 24.4534H136.61ZM136.098 16.9949C135.802 16.9949 135.546 17.1192 135.328 17.3678C135.111 17.6009 134.948 17.8806 134.839 18.2069C134.746 18.5177 134.699 18.8285 134.699 19.1392C134.699 19.4655 134.746 19.7918 134.839 20.1182C134.948 20.4289 135.111 20.7086 135.328 20.9572C135.546 21.1903 135.802 21.3146 136.098 21.3302H143.836C144.131 21.3146 144.387 21.1903 144.605 20.9572C144.822 20.7086 144.978 20.4289 145.071 20.1182C145.18 19.7918 145.234 19.4655 145.234 19.1392C145.234 18.8285 145.18 18.5177 145.071 18.2069C144.978 17.8806 144.822 17.6009 144.605 17.3678C144.387 17.1192 144.131 16.9949 143.836 16.9949H136.098Z" fill="white"/>
</svg>
