<svg width="36" height="36" viewBox="0 0 36 36" fill="none" xmlns="http://www.w3.org/2000/svg">
<rect x="34.375" y="35" width="33.25" height="33.25" rx="16.625" transform="rotate(-180 34.375 35)" stroke="#0C0B0B" stroke-width="1.75"/>
<path d="M17.5515 13.7084L17.5515 12.6522L16.8047 13.3991L13.8206 16.3832C13.7431 16.4607 13.6175 16.4607 13.54 16.3832C13.4626 16.3057 13.4626 16.18 13.54 16.1026L17.6096 12.033C17.6871 11.9555 17.8127 11.9555 17.8902 12.033L18.1902 11.733L17.8902 12.033L21.9597 16.1024C21.9986 16.1413 22.0179 16.1915 22.0179 16.2428C22.0179 16.2941 21.9986 16.3443 21.9597 16.3831C21.8822 16.4605 21.7567 16.4605 21.6792 16.3831L21.6792 16.3831L18.6951 13.3991L17.9483 12.6522L17.9483 13.7084L17.9483 24.577C17.9483 24.6865 17.8594 24.7754 17.7499 24.7754C17.6404 24.7754 17.5515 24.6865 17.5515 24.577L17.5515 13.7084Z" fill="#0C0B0B" stroke="#0C0B0B" stroke-width="0.875"/>
</svg>
