<svg width="20" height="15" viewBox="0 0 20 15" fill="none" xmlns="http://www.w3.org/2000/svg">
<path d="M5.4827 14.9942C7.07976 15.0406 8.67132 14.8086 10.1633 14.3121C11.6553 13.8156 13.0175 13.0645 14.1694 12.1033C15.3212 11.1421 16.2394 9.9903 16.8696 8.71591C17.4997 7.44152 17.8292 6.07043 17.8384 4.68367C18.5703 3.89764 19.1137 2.99258 19.4368 2.02168C19.461 1.94497 19.459 1.86385 19.4312 1.78807C19.4035 1.7123 19.351 1.64512 19.2803 1.5946C19.2095 1.54409 19.1235 1.51241 19.0324 1.50337C18.9414 1.49432 18.8493 1.50831 18.7672 1.54365C18.3843 1.7036 17.9533 1.75527 17.5347 1.69137C17.1162 1.62747 16.7313 1.45123 16.4343 1.18746C16.0552 0.827137 15.5966 0.536523 15.0856 0.33284C14.5747 0.129158 14.0218 0.0165504 13.4598 0.00169107C12.8978 -0.0131682 12.3381 0.0700228 11.8138 0.246335C11.2896 0.422646 10.8114 0.688492 10.4077 1.02812C9.85493 1.49271 9.45005 2.0735 9.23241 2.71405C9.01476 3.3546 8.99177 4.03312 9.16565 4.68367C5.54751 4.87113 3.06341 3.38079 1.07613 1.33743C1.01643 1.27876 0.938333 1.23644 0.851378 1.21565C0.764423 1.19485 0.672372 1.19649 0.586468 1.22034C0.500563 1.2442 0.424522 1.28925 0.36763 1.34999C0.310739 1.41073 0.275459 1.48454 0.2661 1.56239C-0.112488 3.38494 0.160611 5.26438 1.04872 6.9483C1.93682 8.63222 3.39741 10.04 5.23429 10.9825C4.00265 12.2083 2.27304 12.974 0.406506 13.1196C0.306507 13.1339 0.214195 13.1751 0.142491 13.2373C0.0707862 13.2995 0.0232775 13.3796 0.00661326 13.4663C-0.010051 13.5531 0.00496353 13.6422 0.0495553 13.7212C0.0941472 13.8002 0.166085 13.8651 0.2553 13.9069C1.87916 14.6112 3.6674 14.9831 5.4827 14.9942Z" fill="black"/>
</svg>
