<svg width="11" height="15" viewBox="0 0 11 15" fill="none" xmlns="http://www.w3.org/2000/svg">
<path d="M10.299 0.421456C10.299 0.310985 10.2496 0.205039 10.1619 0.126925C10.0741 0.0488101 9.95499 0.00492573 9.83083 0.00492573H7.49016C6.31151 -0.0473147 5.15753 0.317649 4.28037 1.02008C3.4032 1.7225 2.87415 2.70529 2.80881 3.75369V6.00295H0.468135C0.343978 6.00295 0.224906 6.04684 0.137114 6.12495C0.0493213 6.20307 0 6.30901 0 6.41949V8.58544C0 8.69591 0.0493213 8.80186 0.137114 8.87997C0.224906 8.95809 0.343978 9.00197 0.468135 9.00197H2.80881V14.5835C2.80881 14.6939 2.85813 14.7999 2.94592 14.878C3.03372 14.9561 3.15279 15 3.27694 15H6.08575C6.20991 15 6.32898 14.9561 6.41678 14.878C6.50457 14.7999 6.55389 14.6939 6.55389 14.5835V9.00197H9.00692C9.11102 9.0033 9.21265 8.97371 9.29574 8.91789C9.37883 8.86207 9.43863 8.78319 9.46569 8.69374L10.1398 6.52778C10.1584 6.46624 10.1609 6.40171 10.1471 6.33917C10.1333 6.27663 10.1036 6.21774 10.0601 6.16704C10.0167 6.11635 9.96082 6.07519 9.89671 6.04674C9.83261 6.01829 9.76203 6.00331 9.69039 6.00295H6.55389V3.75369C6.57718 3.54749 6.68601 3.35642 6.85914 3.21778C7.03226 3.07914 7.25725 3.0029 7.49016 3.00394H9.83083C9.95499 3.00394 10.0741 2.96006 10.1619 2.88194C10.2496 2.80383 10.299 2.69788 10.299 2.58741V0.421456Z" fill="black"/>
</svg>
