<svg width="18" height="15" viewBox="0 0 18 15" fill="none" xmlns="http://www.w3.org/2000/svg">
<path d="M11.7309 4.50003C11 4.49784 10.2758 4.62161 9.59975 4.86426C8.92365 5.10691 8.30895 5.46368 7.7908 5.91415C7.27265 6.36462 6.86124 6.89996 6.58009 7.48952C6.29895 8.07909 6.15359 8.71131 6.15234 9.35002V14.25C6.15234 14.4489 6.24277 14.6397 6.40372 14.7803C6.56467 14.921 6.78297 15 7.01059 15H9.01316C9.24078 15 9.45908 14.921 9.62003 14.7803C9.78098 14.6397 9.87141 14.4489 9.87141 14.25V9.35002C9.87122 9.12285 9.92582 8.8982 10.0316 8.69071C10.1375 8.48322 10.2921 8.29755 10.4856 8.1458C10.679 7.99406 10.9069 7.87964 11.1543 7.81001C11.4018 7.74038 11.6632 7.7171 11.9217 7.74169C12.3851 7.7927 12.811 7.99057 13.1186 8.29778C13.4262 8.60498 13.5941 9.00016 13.5905 9.40835V14.25C13.5905 14.4489 13.6809 14.6397 13.8418 14.7803C14.0028 14.921 14.2211 15 14.4487 15H16.4513C16.6789 15 16.8972 14.921 17.0582 14.7803C17.2191 14.6397 17.3095 14.4489 17.3095 14.25V9.35002C17.3083 8.71131 17.1629 8.07909 16.8818 7.48952C16.6006 6.89996 16.1892 6.36462 15.6711 5.91415C15.1529 5.46368 14.5382 5.10691 13.8621 4.86426C13.186 4.62161 12.4618 4.49784 11.7309 4.50003Z" fill="black"/>
<path d="M3.57751 5.25H1.00278C0.528781 5.25 0.144531 5.58579 0.144531 6V14.25C0.144531 14.6642 0.528781 15 1.00278 15H3.57751C4.05151 15 4.43576 14.6642 4.43576 14.25V6C4.43576 5.58579 4.05151 5.25 3.57751 5.25Z" fill="black"/>
<path d="M2.29014 3.74999C3.47513 3.74999 4.43576 2.91053 4.43576 1.87499C4.43576 0.839464 3.47513 0 2.29014 0C1.10515 0 0.144531 0.839464 0.144531 1.87499C0.144531 2.91053 1.10515 3.74999 2.29014 3.74999Z" fill="black"/>
</svg>
